<svg width="58" height="56" viewBox="0 0 58 56" fill="none" xmlns="http://www.w3.org/2000/svg">
<path d="M21.9189 27.4097H32.9373C34.5608 27.4097 36.1177 28.0316 37.2657 29.1387C38.4137 30.2458 39.0586 31.7474 39.0586 33.3131C39.0586 34.8788 38.4137 36.3803 37.2657 37.4874C36.1177 38.5945 34.5608 39.2165 32.9373 39.2165H21.9189V16.7835H31.1009C32.562 16.7835 33.9633 17.3433 34.9965 18.3397C36.0296 19.3361 36.6101 20.6875 36.6101 22.0966C36.6101 23.5057 36.0296 24.8571 34.9965 25.8535C33.9633 26.8499 32.562 27.4097 31.1009 27.4097" stroke="#AA7647" stroke-width="2.5" stroke-linecap="round" stroke-linejoin="round"/>
<path d="M19.4703 16.7835H21.9188" stroke="#AA7647" stroke-width="2.5" stroke-linecap="round" stroke-linejoin="round"/>
<path d="M19.4703 39.2165H21.9188" stroke="#AA7647" stroke-width="2.5" stroke-linecap="round" stroke-linejoin="round"/>
<path d="M25.5916 16.783V13.2416" stroke="#AA7647" stroke-width="2.5" stroke-linecap="round" stroke-linejoin="round"/>
<path d="M30.4887 16.783V13.2416" stroke="#AA7647" stroke-width="2.5" stroke-linecap="round" stroke-linejoin="round"/>
<path d="M25.5916 42.7579V39.2165" stroke="#AA7647" stroke-width="2.5" stroke-linecap="round" stroke-linejoin="round"/>
<path d="M30.4887 42.7579V39.2165" stroke="#AA7647" stroke-width="2.5" stroke-linecap="round" stroke-linejoin="round"/>
<ellipse cx="29" cy="28.0389" rx="27" ry="26.0389" stroke="#AA7647" stroke-width="2.5"/>
</svg>
