<svg width="188" height="55" viewBox="0 0 188 55" fill="none" xmlns="http://www.w3.org/2000/svg">
<path d="M73.247 15.4637V37.5418H70.2367V21.0798L62.6282 37.5418H60.5103L52.8668 21.0459V37.5418H49.8564V15.4637H53.0994L61.5679 33.7126L70.0365 15.4637H73.2443H73.247Z" fill="white"/>
<path d="M81.5669 36.9838C80.3633 36.4621 79.4221 35.7396 78.7378 34.8136C78.0535 33.8876 77.7019 32.8207 77.6802 31.6078H80.888C80.9989 32.6511 81.4452 33.5276 82.2269 34.2397C83.0085 34.9518 84.15 35.3092 85.6511 35.3092C87.1522 35.3092 88.2152 34.9648 89.0429 34.271C89.8705 33.5798 90.2843 32.6929 90.2843 31.6078C90.2843 30.7574 90.0409 30.0662 89.5568 29.534C89.0699 29.0019 88.464 28.5976 87.7365 28.3211C87.0089 28.0446 86.027 27.7472 84.791 27.4264C83.2682 27.0429 82.051 26.6595 81.1341 26.2787C80.2172 25.8978 79.4356 25.2953 78.7864 24.4762C78.1346 23.6572 77.8101 22.5564 77.8101 21.1739C77.8101 19.961 78.1292 18.8889 78.7702 17.9524C79.4085 17.016 80.3092 16.2935 81.4669 15.7822C82.6245 15.2709 83.9525 15.0153 85.4537 15.0153C87.6148 15.0153 89.3836 15.537 90.7631 16.5778C92.1425 17.6212 92.9188 19.0037 93.0946 20.7252H89.7867C89.6758 19.8749 89.2132 19.1263 88.3964 18.4768C87.5796 17.8272 86.5004 17.5038 85.1534 17.5038C83.8957 17.5038 82.8706 17.8168 82.0754 18.4454C81.283 19.0741 80.8853 19.9505 80.8853 21.0774C80.8853 21.886 81.1234 22.546 81.5967 23.0546C82.07 23.5659 82.6543 23.9545 83.3494 24.2206C84.0445 24.4866 85.0209 24.7892 86.2786 25.1309C87.8013 25.5353 89.0239 25.9343 89.9516 26.3256C90.8794 26.7195 91.6719 27.3247 92.3345 28.1437C92.9972 28.9628 93.3272 30.074 93.3272 31.4773C93.3272 32.5625 93.0296 33.5824 92.4346 34.5397C91.8395 35.497 90.9551 36.2743 89.7867 36.869C88.6182 37.4638 87.2388 37.7637 85.6511 37.7637C84.0634 37.7637 82.7678 37.5029 81.5642 36.9812L81.5669 36.9838Z" fill="white"/>
<path d="M108.041 22.1051C108.92 22.5616 109.597 23.1616 110.07 23.905V21.646H115.136V37.5629C115.136 39.0288 114.836 40.3591 114.232 41.5486C113.629 42.7381 112.71 43.6875 111.476 44.3918C110.243 45.0961 108.707 45.4483 106.87 45.4483C104.42 45.4483 102.434 44.8901 100.914 43.7762C99.3915 42.6624 98.5233 41.1521 98.3069 39.2453H103.313C103.47 39.8557 103.846 40.3357 104.439 40.6878C105.031 41.04 105.761 41.2173 106.632 41.2173C107.679 41.2173 108.515 40.9252 109.137 40.3461C109.759 39.7644 110.07 38.8358 110.07 37.5603V35.3039C109.575 36.0474 108.893 36.6525 108.025 37.1194C107.157 37.5864 106.137 37.8185 104.974 37.8185C103.611 37.8185 102.378 37.4794 101.271 36.8038C100.165 36.1282 99.2914 35.1657 98.6477 33.9162C98.0066 32.6694 97.6848 31.2269 97.6848 29.5862C97.6848 27.9455 98.0066 26.5108 98.6477 25.2718C99.2887 24.0328 100.162 23.0807 101.271 22.4129C102.378 21.7478 103.611 21.4139 104.974 21.4139C106.14 21.4139 107.162 21.6434 108.041 22.0999V22.1051ZM109.02 26.7351C108.32 26.0309 107.465 25.6787 106.456 25.6787C105.447 25.6787 104.595 26.0256 103.895 26.7221C103.194 27.4186 102.843 28.3759 102.843 29.594C102.843 30.8122 103.192 31.7799 103.895 32.4946C104.595 33.2094 105.45 33.5667 106.456 33.5667C107.462 33.5667 108.317 33.2146 109.02 32.5103C109.721 31.806 110.073 30.8435 110.073 29.6253C110.073 28.4072 109.721 27.4446 109.02 26.7378V26.7351Z" fill="white"/>
<path d="M126.098 22.2328C126.988 21.7293 127.975 21.4763 129.062 21.4763V26.6489H127.669C126.406 26.6489 125.457 26.9097 124.824 27.434C124.191 27.9583 123.877 28.8765 123.877 30.1912V37.5914H118.809V21.6459H123.877V24.3039C124.47 23.4274 125.211 22.7362 126.098 22.2328Z" fill="white"/>
<path d="M134.648 36.8223C133.355 36.1571 132.338 35.2024 131.597 33.966C130.856 32.727 130.485 31.2793 130.485 29.6229C130.485 27.9665 130.861 26.5423 131.61 25.2929C132.362 24.046 133.387 23.0887 134.691 22.4209C135.995 21.7558 137.455 21.4219 139.076 21.4219C140.696 21.4219 142.159 21.7558 143.46 22.4209C144.764 23.0887 145.791 24.046 146.543 25.2929C147.292 26.5423 147.668 27.9848 147.668 29.6229C147.668 31.261 147.287 32.7035 146.527 33.953C145.767 35.2024 144.728 36.1597 143.417 36.8249C142.102 37.4926 140.636 37.8239 139.016 37.8239C137.396 37.8239 135.938 37.49 134.645 36.8249L134.648 36.8223ZM141.494 32.5653C142.175 31.8792 142.516 30.8985 142.516 29.6229C142.516 28.3474 142.186 27.364 141.523 26.6806C140.861 25.9945 140.047 25.6528 139.078 25.6528C138.11 25.6528 137.271 25.9919 136.62 26.6675C135.968 27.3431 135.64 28.3291 135.64 29.6255C135.64 30.9219 135.962 31.8818 136.603 32.5679C137.244 33.2539 138.05 33.5956 139.019 33.5956C139.987 33.5956 140.812 33.2539 141.494 32.5679V32.5653Z" fill="white"/>
<path d="M166.694 21.6485V37.594H161.628V35.4212C161.114 36.1255 160.416 36.6915 159.54 37.1219C158.661 37.5497 157.687 37.7662 156.621 37.7662C155.355 37.7662 154.241 37.4949 153.273 36.9524C152.304 36.4098 151.555 35.6246 151.02 34.5943C150.487 33.5666 150.219 32.3562 150.219 30.9659V21.6511H155.255V30.3086C155.255 31.3755 155.542 32.205 156.115 32.7945C156.689 33.3866 157.46 33.6813 158.425 33.6813C159.391 33.6813 160.194 33.3866 160.768 32.7945C161.341 32.205 161.628 31.3755 161.628 30.3086V21.6511H166.694V21.6485Z" fill="white"/>
<path d="M177.45 22.1051C178.318 21.6486 179.335 21.4191 180.501 21.4191C181.864 21.4191 183.098 21.753 184.204 22.4181C185.31 23.0859 186.184 24.038 186.827 25.277C187.469 26.516 187.79 27.9533 187.79 29.5914C187.79 31.2295 187.469 32.672 186.827 33.9215C186.186 35.1709 185.31 36.1308 184.204 36.809C183.098 37.4846 181.864 37.8237 180.501 37.8237C179.354 37.8237 178.343 37.5942 177.464 37.1377C176.585 36.6812 175.898 36.0891 175.405 35.3665V45.1952H170.339V21.6486H175.405V23.9076C175.898 23.1642 176.579 22.5642 177.45 22.1077V22.1051ZM181.583 26.7195C180.882 26.023 180.017 25.6761 178.989 25.6761C177.961 25.6761 177.128 26.0283 176.428 26.7325C175.727 27.4368 175.376 28.3993 175.376 29.6201C175.376 30.8409 175.725 31.8008 176.428 32.5051C177.128 33.2093 177.983 33.5615 178.989 33.5615C179.995 33.5615 180.855 33.2041 181.567 32.4894C182.278 31.7747 182.632 30.807 182.632 29.5888C182.632 28.3707 182.281 27.4133 181.58 26.7169L181.583 26.7195Z" fill="white"/>
<path d="M18.6438 6.85336C20.8238 10.0305 21.2268 13.6145 21.2268 15.8213H16.0608C16.0608 13.6145 16.4638 10.0305 18.6438 6.85336Z" fill="white"/>
<path d="M37.285 0.220062V21.3773L32.1189 21.8625V5.31178C27.2152 5.75261 23.956 7.51854 22.3683 10.5835C21.9302 9.03145 21.2432 7.41681 20.1829 5.8726C20.0693 5.70566 19.9476 5.53872 19.8259 5.37438C22.509 2.47638 27.0557 0.220062 34.702 0.220062H37.285Z" fill="white"/>
<path d="M28.1159 24.6875L5.16606 26.8343V5.31185C12.3985 5.96396 16.0608 9.4906 16.0608 15.8213H21.2268C21.2268 13.6146 20.8238 10.0306 18.6438 6.85344C16.1933 3.27985 11.4924 0.220123 2.58301 0.220123H0V32.3199L13.4399 31.0626L32.1107 29.3175V49.2332H5.16606V39.2923L18.6546 38.0298L18.6817 33.0216C17.1535 33.165 15.3197 33.3346 13.4426 33.5093V33.5198L0.00270739 34.7692V54.2153H37.2795V23.8293L28.1212 24.6875H28.1159Z" fill="white"/>
<path d="M37.2767 23.8295V23.8373L28.1158 24.6867L37.2767 23.8295Z" fill="white"/>
</svg>
