<svg width="38" height="56" viewBox="0 0 38 56" fill="none" xmlns="http://www.w3.org/2000/svg">
<path d="M18.6438 6.87793C20.8238 10.1723 21.2268 13.8886 21.2268 16.1768H16.0608C16.0608 13.8886 16.4638 10.1723 18.6438 6.87793Z" fill="#AA7647"/>
<path d="M37.2851 0V21.9382L32.119 22.4413V5.27966C27.2153 5.73677 23.9561 7.56788 22.3684 10.746C21.9302 9.13663 21.2432 7.46239 20.183 5.86118C20.0694 5.68808 19.9476 5.51497 19.8259 5.34458C22.509 2.3396 27.0557 0 34.702 0H37.2851Z" fill="#AA7647"/>
<path d="M28.1159 25.3705L5.16606 27.5965V5.27966C12.3985 5.95585 16.0608 9.61267 16.0608 16.1771H21.2268C21.2268 13.8889 20.8238 10.1725 18.6438 6.87817C16.1933 3.17266 11.4924 0 2.58301 0H0V33.2846L13.4399 31.9809L32.1107 30.1714V50.8222H5.16606V40.5144L18.6546 39.2053L18.6817 34.0122C17.1535 34.1609 15.3197 34.3367 13.4426 34.518V34.5288L0.00270739 35.8244V55.9882H37.2795V24.4806L28.1212 25.3705H28.1159Z" fill="#AA7647"/>
<path d="M37.2767 24.481V24.4891L28.1158 25.3708L37.2767 24.481Z" fill="#AA7647"/>
</svg>
