<svg width="47" height="65" viewBox="0 0 47 65" fill="none" xmlns="http://www.w3.org/2000/svg">
<path d="M38.1789 8.31372H8.80585C6.10213 8.31372 3.91034 10.479 3.91034 13.1501V35.72C3.91034 38.391 6.10213 40.5564 8.80585 40.5564H38.1789C40.8826 40.5564 43.0744 38.391 43.0744 35.72V13.1501C43.0744 10.479 40.8826 8.31372 38.1789 8.31372Z" stroke="#AA7647" stroke-width="2.5" stroke-linecap="round" stroke-linejoin="round"/>
<path d="M23.97 8.31376V1.86523" stroke="#AA7647" stroke-width="2.5" stroke-linecap="round" stroke-linejoin="round"/>
<path d="M16.2721 26.4395C17.8239 26.4395 19.0819 25.2263 19.0819 23.7298C19.0819 22.2332 17.8239 21.02 16.2721 21.02C14.7203 21.02 13.4623 22.2332 13.4623 23.7298C13.4623 25.2263 14.7203 26.4395 16.2721 26.4395Z" fill="#0E3254" stroke="#AA7647" stroke-width="2.5"/>
<path d="M31.5257 26.4396C33.0775 26.4396 34.3354 25.2264 34.3354 23.7298C34.3354 22.2333 33.0775 21.0201 31.5257 21.0201C29.9739 21.0201 28.7159 22.2333 28.7159 23.7298C28.7159 25.2264 29.9739 26.4396 31.5257 26.4396Z" fill="#0E3254" stroke="#AA7647" stroke-width="2.5"/>
<path d="M44.985 63.587C44.985 52.4548 35.3625 49.7687 23.4925 49.7687C11.6225 49.7687 2 52.4548 2 63.587" stroke="#AA7647" stroke-width="2.5" stroke-linecap="round"/>
</svg>
