<svg width="57" height="49" viewBox="0 0 57 49" fill="none" xmlns="http://www.w3.org/2000/svg">
<path d="M2 6.53875V42.8487C2 44.0525 2.48604 45.2069 3.3512 46.0581C4.21635 46.9093 5.38976 47.3875 6.61327 47.3875H52.746C53.3578 47.3875 53.9445 47.1484 54.377 46.7228C54.8096 46.2972 55.0526 45.72 55.0526 45.1181V13.3469C55.0526 12.745 54.8096 12.1678 54.377 11.7422C53.9445 11.3166 53.3578 11.0775 52.746 11.0775H6.61327C5.38976 11.0775 4.21635 10.5993 3.3512 9.74813C2.48604 8.89695 2 7.7425 2 6.53875ZM2 6.53875C2 5.335 2.48604 4.18055 3.3512 3.32937C4.21635 2.47819 5.38976 2 6.61327 2H45.8261" stroke="#AA7647" stroke-width="2.5" stroke-linecap="round" stroke-linejoin="round"/>
<path d="M44.3899 29.2325C44.3899 30.3229 43.4602 31.2835 42.2172 31.2835C40.9741 31.2835 40.0444 30.3229 40.0444 29.2325C40.0444 28.1422 40.9741 27.1816 42.2172 27.1816C43.4602 27.1816 44.3899 28.1422 44.3899 29.2325Z" fill="#0E3254" stroke="#AA7647" stroke-width="2.5"/>
</svg>
